<svg width="461" height="109" viewBox="0 0 461 109" fill="none" xmlns="http://www.w3.org/2000/svg">
<g clip-path="url(#clip0_229_4467)">
<path d="M3.65502 2.21496C3.9954 2.04477 4.26284 2.0853 4.44924 2.32842C4.67616 2.65259 4.63564 2.92814 4.33578 3.15506C3.86573 3.51165 3.42 3.89255 2.99858 4.28965C2.58526 4.68676 2.26109 5.21354 2.03417 5.87809C1.92071 6.21847 1.8964 6.51832 1.96123 6.78576C2.02606 7.05321 2.26109 7.19908 2.6582 7.2396C3.32275 7.31254 3.85763 7.51515 4.27905 7.83121C4.69236 8.15538 4.90308 8.63354 4.90308 9.28188C4.90308 9.80865 4.70047 10.2868 4.30336 10.7001C3.90625 11.1134 3.34706 11.3241 2.63388 11.3241C1.92071 11.3241 1.32099 11.0324 0.794217 10.457C0.267441 9.88159 0 9.12789 0 8.20401C0 7.28012 0.178294 6.4697 0.542985 5.72411C0.899573 4.97852 1.36962 4.31397 1.92881 3.72236C2.49611 3.13885 3.07151 2.63639 3.66312 2.22307L3.65502 2.21496ZM10.0574 2.21496C10.3978 2.04477 10.6652 2.0853 10.8516 2.32842C11.0785 2.65259 11.038 2.92814 10.7381 3.15506C10.2681 3.51165 9.82236 3.89255 9.40094 4.28965C8.98762 4.68676 8.66345 5.21354 8.43653 5.87809C8.32307 6.21847 8.29876 6.51832 8.36359 6.78576C8.42843 7.05321 8.66345 7.19908 9.06056 7.2396C9.72511 7.31254 10.26 7.51515 10.6733 7.83121C11.0866 8.15538 11.2973 8.63354 11.2973 9.28188C11.2973 9.80865 11.0947 10.2868 10.7057 10.7001C10.3086 11.1134 9.74942 11.3241 9.03625 11.3241C8.32307 11.3241 7.72336 11.0324 7.19658 10.457C6.6698 9.88159 6.40236 9.12789 6.40236 8.20401C6.40236 7.28012 6.58066 6.4697 6.94535 5.72411C7.30194 4.97852 7.76388 4.31397 8.33118 3.72236C8.89847 3.13885 9.47388 2.63639 10.0574 2.22307V2.21496Z" fill="#524847"/>
<path d="M28.697 25.7253C28.2431 25.7253 28.0162 25.5146 28.0162 25.1013C28.0162 25.0041 28.0243 24.6637 28.0486 24.064C28.0649 23.4643 28.0892 22.7187 28.1216 21.8191C28.1459 20.9195 28.1702 19.9551 28.1945 18.9259C28.2107 17.8966 28.2269 16.916 28.2269 15.9921V14.4928C27.1653 16.0245 25.9821 17.4509 24.6773 18.78C23.3725 20.101 22.0515 21.268 20.7224 22.2648C19.3852 23.2697 18.1452 24.0721 16.9944 24.6718C16.727 24.5745 16.6297 24.4043 16.6865 24.1612C17.4645 23.5939 18.3073 22.8645 19.2069 21.965C20.1146 21.0654 21.0304 20.0524 21.9461 18.9178C22.8619 17.7832 23.721 16.5999 24.5152 15.3681C25.3094 14.1363 25.9902 12.9206 26.5575 11.705H19.4905C18.5261 11.7212 17.7643 11.7698 17.197 11.8509L16.9134 10.6028C17.6104 10.7163 18.4775 10.7892 19.4987 10.8297H28.235V6.09683H21.314C20.3334 6.11304 19.5635 6.16166 19.0205 6.2346L18.7044 5.01896C19.4257 5.13242 20.2848 5.20536 21.2897 5.24588H28.2431V2.40939C28.2431 1.42878 28.1459 0.788539 27.9595 0.512994C27.8622 0.399535 27.8541 0.286075 27.9271 0.172615C28 0.0753644 28.0973 0.0429473 28.2107 0.0591558C28.4539 0.0753643 28.7942 0.12399 29.2319 0.188824C29.6695 0.253658 30.1071 0.326596 30.5529 0.399535C30.9986 0.472473 31.3309 0.553516 31.5578 0.626454C31.7685 0.683184 31.8495 0.82906 31.809 1.05598C31.809 1.26669 31.6875 1.38825 31.4362 1.42067C31.2255 1.43688 31.0553 1.48551 30.9094 1.56655C30.7717 1.63949 30.6987 1.80157 30.6987 2.0447V5.25398H35.4073C35.6504 5.25398 35.8449 5.18105 35.9746 5.02707C36.0475 4.92981 36.161 4.78394 36.315 4.58944C36.469 4.38683 36.6148 4.19233 36.7688 3.98972C36.9228 3.78711 37.0201 3.65745 37.0849 3.5764C37.2146 3.40621 37.4172 3.3738 37.6765 3.49536C37.8467 3.59261 38.0979 3.7628 38.4302 4.02214C38.7625 4.27337 39.0785 4.53271 39.3784 4.78394C39.6783 5.04327 39.889 5.22967 40.0024 5.36744C40.1564 5.52143 40.205 5.67541 40.1564 5.8456C40.1078 6.01578 40.0024 6.10493 39.8322 6.10493H30.6987V10.8378H37.247C37.4901 10.8378 37.6684 10.773 37.79 10.6352C37.8629 10.538 38.0007 10.384 38.1871 10.1652C38.3735 9.94635 38.568 9.72754 38.7544 9.50062C38.9408 9.2737 39.0623 9.12782 39.1272 9.07109C39.2974 8.88469 39.5162 8.85227 39.7755 8.99005C39.9619 9.06299 40.2455 9.24128 40.6102 9.51682C40.9749 9.79237 41.3396 10.0679 41.6881 10.3354C42.0366 10.6109 42.2716 10.8135 42.3851 10.9432C42.5391 11.0728 42.5877 11.2349 42.5228 11.4213C42.4661 11.6077 42.3608 11.705 42.2149 11.705H31.1202C31.728 12.799 32.4898 13.8445 33.4137 14.8251C34.3375 15.8057 35.3425 16.6972 36.4203 17.4914C37.4982 18.2856 38.5923 18.9745 39.7107 19.558C40.8291 20.1415 41.8745 20.5953 42.8632 20.9195C42.4499 21.0735 42.0285 21.3085 41.6152 21.6327C41.2019 21.9569 40.8372 22.2972 40.5211 22.67C40.205 23.0347 39.9781 23.3751 39.8241 23.675C38.7057 22.9537 37.5711 22.0298 36.4203 20.8952C35.2695 19.7606 34.1917 18.472 33.1867 17.0214C32.1818 15.5788 31.3552 14.0309 30.6906 12.3857V16.0164C30.6906 16.9808 30.6987 17.9534 30.7149 18.9259C30.7312 19.8984 30.7636 20.8061 30.8041 21.6489C30.8446 22.4917 30.8689 23.1887 30.8851 23.7479C30.9013 24.3071 30.9094 24.6394 30.9094 24.7528C30.9094 24.996 30.6744 25.2229 30.2125 25.4174C29.7505 25.62 29.24 25.7172 28.697 25.7172V25.7253Z" fill="#524847"/>
<path d="M58.934 25.7251C58.4397 25.7251 58.1965 25.5063 58.1965 25.0768C58.1965 24.9796 58.2046 24.6311 58.2208 24.0314C58.237 23.4235 58.2695 22.6779 58.3019 21.7946C58.3343 20.9112 58.3667 19.9873 58.3829 19.031C58.3991 18.0747 58.4153 17.1995 58.4153 16.4052V15.7245C57.3537 17.1427 56.1786 18.4475 54.8819 19.6388C53.5852 20.8302 52.2723 21.8756 50.9351 22.7752C49.5979 23.6748 48.3499 24.396 47.1747 24.9471C46.8911 24.8499 46.7938 24.6797 46.8911 24.4366C47.896 23.772 48.982 22.8887 50.1652 21.7865C51.3484 20.6762 52.5073 19.4038 53.6581 17.9532C54.8008 16.5025 55.7977 14.9708 56.6486 13.3418H49.525C48.5606 13.358 47.7988 13.4148 47.2315 13.512L46.9478 12.264C47.6448 12.3774 48.5119 12.4504 49.5331 12.4909H58.4153V5.01876H51.1863C50.2057 5.03497 49.4277 5.0836 48.8604 5.15654L48.5768 3.9409C49.2737 4.05436 50.1328 4.1273 51.162 4.16782H58.4234V2.14986C58.4234 1.24218 58.3586 0.682987 58.2208 0.480381C58.1479 0.366921 58.1398 0.261566 58.1965 0.164315C58.2695 0.0670636 58.3748 0.0346465 58.5045 0.0508551C58.7314 0.0670636 59.0556 0.115689 59.4689 0.180523C59.8822 0.245357 60.3036 0.318296 60.717 0.391234C61.1303 0.464172 61.4544 0.545215 61.6814 0.618153C61.9083 0.674883 62.0055 0.82076 61.965 1.04768C61.9488 1.25839 61.8272 1.37995 61.5922 1.41237C61.3815 1.42858 61.2113 1.4772 61.0654 1.55825C60.9277 1.63119 60.8547 1.79327 60.8547 2.0364V4.15971H65.9604C66.2035 4.15971 66.398 4.08678 66.5277 3.93279C66.6006 3.83554 66.7141 3.68967 66.8681 3.49516C67.0221 3.29256 67.1679 3.09806 67.3219 2.89545C67.4759 2.69284 67.5732 2.56317 67.6299 2.48213C67.7839 2.31194 67.9784 2.27953 68.2215 2.40109C68.4079 2.49834 68.6672 2.66853 68.9914 2.91166C69.3156 3.15479 69.6235 3.41412 69.9234 3.68156C70.2232 3.949 70.434 4.14351 70.5474 4.27317C70.7014 4.42715 70.75 4.58924 70.7014 4.75943C70.6528 4.92962 70.5555 5.01066 70.4015 5.01066H60.8466V12.4747H61.9488C62.2487 12.0208 62.5566 11.4779 62.8727 10.8457C63.1806 10.2136 63.4805 9.56525 63.7479 8.91691C64.0235 8.26857 64.2423 7.66075 64.4125 7.10156C64.5827 6.54237 64.6799 6.10474 64.6961 5.78057C64.6961 5.66711 64.7286 5.56985 64.7772 5.49692C64.8501 5.44019 64.9555 5.44019 65.0933 5.49692C65.3202 5.56985 65.6443 5.70763 66.0577 5.89403C66.471 6.08042 66.9005 6.28303 67.33 6.49374C67.7677 6.70445 68.108 6.87464 68.3512 7.00431C68.5619 7.10156 68.6024 7.24744 68.4889 7.45815C68.4484 7.66886 68.3106 7.7499 68.0675 7.71748C67.8406 7.70127 67.6785 7.71748 67.5813 7.77421C67.484 7.83094 67.3705 7.92819 67.2409 8.05786C67.2004 8.11459 67.1679 8.16322 67.1274 8.19563C66.4629 8.94933 65.7416 9.71923 64.9555 10.4891C64.1694 11.2671 63.4481 11.9236 62.7835 12.4747H67.2652C67.5083 12.4747 67.6866 12.4098 67.8082 12.2721C67.8811 12.1748 68.0189 12.0208 68.2053 11.802C68.3917 11.5832 68.5862 11.3644 68.7726 11.1375C68.959 10.9106 69.0805 10.7566 69.1454 10.6836C69.3156 10.5135 69.5344 10.481 69.7937 10.6026C69.9801 10.6998 70.2638 10.8781 70.6285 11.1537C71.0013 11.4292 71.3578 11.7048 71.7063 11.9803C72.0548 12.2559 72.2898 12.4504 72.4033 12.5638C72.5573 12.7178 72.6059 12.8799 72.5411 13.0582C72.4843 13.2365 72.379 13.3256 72.2331 13.3256H61.2599C61.8434 14.2738 62.6052 15.1653 63.5291 16.0081C64.453 16.851 65.466 17.6128 66.5682 18.2935C67.6623 18.9743 68.7726 19.5497 69.8829 20.0197C71.0013 20.4898 72.0386 20.8302 73.003 21.0409C72.3628 21.3083 71.7712 21.7216 71.2444 22.2889C70.7176 22.8562 70.3448 23.3749 70.1422 23.845C68.9671 23.2371 67.792 22.4348 66.6087 21.4299C65.4255 20.425 64.3315 19.2904 63.3346 18.0099C62.3378 16.7294 61.5031 15.3679 60.8385 13.9091V16.3728C60.8385 17.167 60.8466 18.018 60.8628 18.9257C60.879 19.8333 60.9033 20.7086 60.9358 21.5514C60.9682 22.3943 60.9844 23.0994 61.0087 23.6748C61.0249 24.2502 61.033 24.5986 61.033 24.7121C61.033 24.9796 60.8223 25.2065 60.409 25.4091C59.9957 25.6117 59.4932 25.7089 58.9097 25.7089L58.934 25.7251ZM54.7117 11.9965C54.4118 12.0695 54.1525 12.0614 53.9337 11.956C53.7149 11.8507 53.5609 11.6399 53.4636 11.3158C53.2205 10.3514 52.8639 9.41127 52.402 8.5036C51.94 7.59592 51.3484 6.81791 50.6272 6.17767C50.5866 5.89402 50.7001 5.73194 50.9675 5.69142C51.7617 5.91834 52.5073 6.2344 53.2124 6.63962C53.9094 7.04483 54.501 7.51488 54.9872 8.04165C55.4654 8.56843 55.7571 9.16815 55.8544 9.83269C55.9516 10.4162 55.8787 10.9025 55.6437 11.2834C55.4087 11.6643 55.1007 11.8993 54.7198 11.9965H54.7117Z" fill="#524847"/>
<path d="M88.7491 23.7722C88.506 23.5453 88.4736 23.3184 88.6681 23.0915C89.9567 22.8808 91.1723 22.508 92.3312 21.9569C93.482 21.4058 94.5031 20.7007 95.3946 19.8417C96.2861 18.9826 96.983 17.9777 97.4936 16.835C98.0042 15.6923 98.2554 14.428 98.2554 13.0503C98.2554 11.2187 97.9069 9.6384 97.2181 8.3174C96.5292 6.99641 95.5648 5.97527 94.3411 5.25399C93.1092 4.53271 91.6667 4.17613 90.0053 4.17613C90.1917 4.58944 90.3213 5.04328 90.3781 5.53764C90.4348 6.032 90.451 6.53447 90.4348 7.04503C90.3619 8.74693 90.1106 10.3759 89.6811 11.94C89.2516 13.5041 88.7248 14.9062 88.0927 16.1542C87.4605 17.4023 86.8041 18.4315 86.1233 19.25C85.4426 20.0605 84.8105 20.5791 84.2188 20.8061C83.7245 21.0492 83.2058 21.1464 82.6628 21.0897C82.1117 21.033 81.6012 20.7169 81.1311 20.1496C80.7502 19.6958 80.3855 19.2176 80.0289 18.7152C79.6724 18.2127 79.3725 17.6292 79.1375 16.9565C78.9025 16.2839 78.7728 15.4573 78.7566 14.4766C78.7404 13.0584 78.9997 11.6807 79.5508 10.3354C80.1019 8.99006 80.8718 7.78252 81.8767 6.70466C82.8816 5.62679 84.0568 4.75963 85.4264 4.11129C86.7879 3.46295 88.271 3.11447 89.8837 3.07395C91.4559 3.03343 92.9147 3.26035 94.2681 3.7385C95.6215 4.22475 96.8048 4.92172 97.8178 5.8375C98.8308 6.75328 99.6169 7.83925 100.176 9.08731C100.735 10.3354 101.011 11.7131 101.011 13.2286C101.011 14.817 100.703 16.2434 100.079 17.5157C99.4548 18.7881 98.5877 19.866 97.4693 20.7655C96.3509 21.6651 95.0542 22.3702 93.5874 22.8808C92.1124 23.3913 90.5159 23.6912 88.7896 23.7884L88.7491 23.7722ZM83.5867 18.0668C84.0811 17.9128 84.616 17.4752 85.2076 16.7458C85.7911 16.0164 86.3584 15.1007 86.9095 13.9904C87.4605 12.8882 87.9225 11.6726 88.2953 10.3597C88.6762 9.04679 88.895 7.72579 88.9517 6.4048C88.9517 6.30755 88.9517 6.2184 88.9679 6.13736C88.976 6.04821 88.9841 5.97527 88.9841 5.89423C88.9841 5.57006 88.9841 5.27831 89.0004 5.00276C89.0085 4.72722 89.0004 4.46788 88.9598 4.22475C87.4281 4.39494 86.0585 4.95414 84.8429 5.91044C83.6353 6.86674 82.6952 8.08238 82.0226 9.56546C81.3499 11.0485 81.0339 12.6937 81.0744 14.4847C81.1149 15.9435 81.3824 16.9484 81.8848 17.5076C82.3873 18.0668 82.9546 18.2532 83.6029 18.0587L83.5867 18.0668Z" fill="#524847"/>
<path d="M109.449 25.7252C109.035 25.7252 108.825 25.5469 108.825 25.1822C108.825 25.085 108.833 24.7041 108.857 24.0314C108.873 23.3588 108.906 22.4997 108.938 21.4462C108.978 20.4007 109.003 19.2661 109.019 18.0424C109.035 16.8187 109.051 15.6273 109.051 14.4522V10.7405C108.581 11.4942 108.095 12.2235 107.601 12.9205C107.106 13.6175 106.596 14.2739 106.069 14.8817C105.769 14.9223 105.615 14.8088 105.615 14.5414C106.126 13.7066 106.62 12.7503 107.09 11.6806C107.56 10.6027 107.998 9.4843 108.395 8.31729C108.792 7.15838 109.141 6.03189 109.44 4.95402C109.74 3.87616 109.975 2.91985 110.137 2.09322C110.299 1.25848 110.381 0.642558 110.381 0.24545C110.381 0.034739 110.486 -0.0381993 110.688 0.0185305C110.899 0.0752603 111.215 0.172511 111.653 0.30218C112.091 0.431848 112.528 0.56962 112.99 0.715497C113.444 0.861373 113.784 0.974833 114.011 1.07208C114.165 1.12881 114.222 1.25848 114.181 1.46919C114.125 1.6799 114.011 1.77715 113.841 1.77715C113.614 1.76095 113.436 1.77715 113.298 1.81768C113.168 1.8663 113.055 2.02028 112.958 2.28772L112.787 2.83071H114.57C114.7 2.83071 114.83 2.77398 114.943 2.66052C115.016 2.56327 115.122 2.4417 115.259 2.28772C115.389 2.13374 115.502 2.00407 115.6 1.89061C115.673 1.79336 115.746 1.73663 115.81 1.72042C115.875 1.70422 115.972 1.73663 116.11 1.83388C116.321 1.96355 116.637 2.17426 117.075 2.4417C117.512 2.71725 117.853 2.93606 118.096 3.10625C118.225 3.21971 118.282 3.35748 118.266 3.51957C118.25 3.68165 118.144 3.78701 117.95 3.84374C117.877 3.85995 117.796 3.89237 117.707 3.92478C117.626 3.9653 117.545 3.98962 117.464 4.01393C117.293 4.08687 117.18 4.17601 117.123 4.26516C117.067 4.36241 116.994 4.50829 116.896 4.719C116.823 4.96213 116.678 5.41597 116.475 6.06431C116.264 6.71265 116.037 7.43393 115.794 8.22004C115.551 9.00615 115.308 9.74364 115.081 10.4487H115.956C116.11 10.4487 116.232 10.392 116.329 10.2785C116.37 10.238 116.459 10.1326 116.613 9.95435C116.767 9.77606 116.848 9.65449 116.872 9.59776C117.002 9.44378 117.156 9.41947 117.326 9.51672C117.48 9.58966 117.674 9.69501 117.926 9.82468C118.169 9.95435 118.42 10.1002 118.663 10.2542C118.89 10.2704 119.166 10.3028 119.498 10.3352C119.83 10.3758 120.146 10.392 120.446 10.392H122.237V7.41772H118.89C118.08 7.43393 117.423 7.47445 116.929 7.53118L116.645 6.36416C117.253 6.46142 117.99 6.52625 118.858 6.56677H122.237V3.67355H120.397C119.603 3.68976 118.963 3.73028 118.469 3.78701L118.185 2.6281C118.793 2.72535 119.53 2.79019 120.397 2.8226H122.237V2.02839C122.237 1.23417 122.164 0.715497 122.01 0.472369C121.953 0.358909 121.953 0.24545 122.01 0.13199C122.067 0.0590518 122.164 0.0266348 122.294 0.0428433C122.521 0.0590518 122.837 0.0995731 123.242 0.156303C123.647 0.213033 124.052 0.277867 124.458 0.342701C124.863 0.407535 125.179 0.472369 125.406 0.529099C125.617 0.585828 125.698 0.731705 125.657 0.958624C125.641 1.14502 125.519 1.25848 125.284 1.299C125.098 1.31521 124.936 1.36384 124.806 1.43678C124.676 1.50971 124.604 1.66369 124.604 1.89061V2.8226H126.613C126.784 2.8226 126.905 2.75777 126.986 2.6281C127.059 2.53085 127.173 2.39308 127.31 2.21478C127.448 2.03649 127.562 1.89872 127.635 1.80147C127.788 1.63128 127.967 1.59886 128.177 1.72042C128.445 1.85009 128.802 2.0527 129.255 2.31204C129.709 2.57948 130.058 2.8064 130.301 2.99279C130.455 3.09004 130.52 3.21971 130.512 3.37369C130.503 3.53578 130.406 3.64924 130.212 3.73028C130.114 3.7708 130.033 3.80322 129.969 3.84374C129.904 3.88426 129.823 3.91668 129.725 3.9572C129.498 4.05445 129.385 4.29758 129.385 4.69469C129.385 4.97834 129.385 5.27819 129.401 5.60236C129.409 5.92653 129.417 6.2426 129.417 6.56677H129.474C129.661 6.56677 129.79 6.50194 129.847 6.36416C129.944 6.2345 130.066 6.0562 130.22 5.83739C130.374 5.61857 130.495 5.43217 130.593 5.2863C130.763 5.07559 130.941 5.06748 131.136 5.25388C131.346 5.42407 131.581 5.65909 131.857 5.96706C132.132 6.27502 132.351 6.52625 132.521 6.72886C132.651 6.89904 132.7 7.05303 132.651 7.1989C132.602 7.34478 132.497 7.40961 132.327 7.40961H129.458C129.498 8.39023 129.539 9.2898 129.588 10.0921C129.636 10.8944 129.661 11.3726 129.661 11.5266C129.661 11.7535 129.442 11.948 129.012 12.1101C128.575 12.2722 128.129 12.3532 127.675 12.3532C127.278 12.3532 127.075 12.1749 127.075 11.8102V11.2429H124.612V14.1605H127.164C127.351 14.1605 127.505 14.0956 127.618 13.966C127.716 13.8363 127.853 13.6499 128.04 13.4149C128.226 13.1798 128.364 13.0016 128.437 12.8881C128.55 12.7179 128.729 12.7017 128.98 12.8314C129.207 12.961 129.515 13.2042 129.904 13.5445C130.293 13.8849 130.576 14.1605 130.771 14.3631C130.884 14.4927 130.925 14.6386 130.901 14.7926C130.876 14.9466 130.779 15.0195 130.633 15.0195H124.62V17.7993H127.772C127.959 17.7993 128.121 17.7344 128.25 17.5967C128.348 17.467 128.518 17.2482 128.761 16.9483C129.004 16.6485 129.166 16.4297 129.247 16.2919C129.401 16.1217 129.588 16.1055 129.815 16.2351C129.985 16.3486 130.204 16.5107 130.463 16.7133C130.73 16.924 130.982 17.1428 131.233 17.3616C131.476 17.5886 131.654 17.775 131.776 17.9289C131.93 18.0991 131.978 18.2612 131.93 18.4071C131.881 18.5611 131.776 18.634 131.606 18.634H124.66C124.676 19.258 124.701 19.8091 124.717 20.2792C124.733 20.7492 124.749 21.0653 124.749 21.2193C124.749 21.43 124.531 21.6083 124.093 21.7704C123.655 21.9324 123.218 22.0135 122.756 22.0135C122.294 22.0135 122.107 21.8271 122.107 21.4462C122.107 21.2922 122.124 20.9518 122.148 20.4088C122.172 19.8659 122.197 19.2824 122.221 18.634H119.271C118.477 18.6502 117.836 18.6907 117.342 18.7475L117.148 17.9533C116.904 18.5773 116.621 19.1689 116.297 19.7443C117.075 20.652 118.071 21.3489 119.287 21.8271C120.511 22.3052 122.043 22.5484 123.898 22.5484C125.754 22.5484 127.351 22.4835 128.81 22.3458C130.268 22.2161 131.427 22.054 132.303 21.8676C131.946 22.2242 131.638 22.7267 131.395 23.3669C131.152 24.0071 130.99 24.5744 130.909 25.0688H124.782C122.456 25.0688 120.551 24.6879 119.076 23.918C117.601 23.1562 116.443 22.1594 115.583 20.9275C115.057 21.7379 114.465 22.4835 113.809 23.1562C113.16 23.8288 112.455 24.4448 111.693 25.0121C111.58 25.0121 111.467 24.9553 111.353 24.8419V24.8986C111.353 25.1093 111.142 25.2876 110.729 25.4497C110.316 25.6118 109.886 25.6928 109.449 25.6928V25.7252ZM111.353 24.5339C112.074 23.7559 112.698 22.9293 113.225 22.054C113.752 21.1787 114.222 20.2468 114.611 19.258C114.198 18.3666 113.882 17.4265 113.663 16.4378C113.444 15.4409 113.29 14.436 113.193 13.4149C113.379 13.2042 113.582 13.1798 113.784 13.3257C113.938 14.1929 114.117 15.0114 114.327 15.7651C114.538 16.5188 114.789 17.2239 115.097 17.8641C115.397 16.8592 115.648 15.8137 115.835 14.7278C116.021 13.6418 116.167 12.4991 116.264 11.3078H114.846C114.676 11.7616 114.562 12.1182 114.506 12.3856C114.433 12.6288 114.173 12.7989 113.744 12.8962C113.306 12.9934 112.877 12.9772 112.439 12.8638C112.026 12.7503 111.896 12.491 112.066 12.0939C112.22 11.7697 112.399 11.3159 112.609 10.7162C112.82 10.1164 113.039 9.46809 113.274 8.75492C113.509 8.04175 113.744 7.34478 113.971 6.65592C114.198 5.96706 114.392 5.35113 114.554 4.80815C114.716 4.26516 114.822 3.88426 114.878 3.65734H112.496C112.309 4.12739 112.115 4.60554 111.912 5.07559C111.71 5.54563 111.507 6.02379 111.304 6.49383V15.992C111.304 16.6728 111.304 17.4265 111.321 18.2612C111.329 19.096 111.337 19.9226 111.353 20.7411C111.361 21.5678 111.369 22.3133 111.369 22.986V24.5015L111.353 24.5339ZM119.271 17.8155H122.245V15.0357H120.203C119.392 15.0519 118.736 15.0925 118.242 15.1492L118.161 14.7197C118.031 15.2464 117.893 15.757 117.747 16.2351C117.601 16.7133 117.439 17.1833 117.253 17.6372C117.464 17.6534 117.755 17.6858 118.144 17.7344C118.533 17.7831 118.906 17.8074 119.263 17.8074L119.271 17.8155ZM120.17 14.1848H122.245V11.2672H120.454C120.284 11.2672 120.106 11.2672 119.927 11.2834C119.749 11.2916 119.579 11.2997 119.433 11.2997C119.417 11.3402 119.368 11.3726 119.287 11.4131C119.214 11.4293 119.149 11.4536 119.101 11.4861C119.052 11.5185 119.003 11.5509 118.947 11.5833C118.817 11.6562 118.728 11.7292 118.696 11.794C118.655 11.8589 118.623 11.9804 118.582 12.1506C118.566 12.4748 118.525 12.7908 118.469 13.0988C118.412 13.4068 118.355 13.7309 118.298 14.047C118.509 14.0632 118.785 14.0956 119.133 14.1361C119.482 14.1767 119.83 14.1929 120.17 14.1929V14.1848ZM124.628 6.58298H127.092V3.68976H124.628V6.58298ZM124.628 10.4082H127.092V7.43393H124.628V10.4082Z" fill="#524847"/>
<path d="M148.171 25.7253C147.984 24.7203 147.692 24.0477 147.303 23.6992C146.914 23.3507 146.298 23.1157 145.448 23.0022C145.277 22.7591 145.31 22.5646 145.537 22.4349C145.707 22.4349 145.958 22.4349 146.298 22.4511C146.639 22.4673 146.987 22.4673 147.344 22.4835C147.701 22.4917 147.976 22.4998 148.171 22.4998C148.681 22.4998 148.932 22.2809 148.932 21.8433V19.5741C148.519 19.8172 148.033 20.1252 147.482 20.4818C146.931 20.8384 146.371 21.2112 145.796 21.5921C145.221 21.973 144.694 22.3134 144.224 22.6132C143.754 22.9131 143.389 23.1562 143.146 23.3264C142.976 23.4399 142.878 23.5452 142.846 23.6344C142.814 23.7316 142.846 23.8694 142.919 24.0639C142.976 24.2179 142.927 24.3394 142.781 24.4367C142.611 24.5501 142.465 24.5501 142.352 24.4367C142.198 24.226 141.995 23.9423 141.728 23.5857C141.46 23.2291 141.209 22.8644 140.966 22.4917C140.723 22.1189 140.528 21.8433 140.399 21.6569C140.342 21.5597 140.334 21.4786 140.374 21.4057C140.39 21.3652 140.472 21.3327 140.601 21.2922C140.698 21.276 140.82 21.2598 140.974 21.2517C141.128 21.2436 141.298 21.2112 141.485 21.1545C141.922 21.041 142.465 20.887 143.13 20.7006C143.794 20.5142 144.483 20.2954 145.213 20.0604C145.942 19.8254 146.639 19.5984 147.295 19.3796C147.96 19.1608 148.503 18.9663 148.94 18.7961V14.5414H144.686C143.891 14.5576 143.251 14.6062 142.757 14.6791L142.473 13.5121C143.081 13.5851 143.819 13.6418 144.686 13.6823H148.94V11.2997H141.647C141.606 13.6661 141.363 15.7408 140.909 17.54C140.455 19.3391 139.847 20.8951 139.078 22.208C138.316 23.5209 137.457 24.6636 136.509 25.628C136.209 25.6685 136.055 25.5389 136.055 25.2552C136.565 24.4772 137.011 23.6262 137.392 22.6862C137.773 21.7461 138.089 20.6601 138.34 19.4201C138.591 18.1802 138.786 16.7376 138.907 15.0763C139.029 13.423 139.094 11.4861 139.094 9.27361C139.094 7.06115 139.053 5.4565 138.98 4.39485C138.907 3.33319 138.818 2.68485 138.729 2.43362C138.672 2.32016 138.68 2.22291 138.762 2.14997C138.843 2.07703 138.94 2.05272 139.069 2.09324C139.256 2.16618 139.531 2.28774 139.896 2.46603C140.253 2.63622 140.625 2.81452 141.014 2.99281C141.403 3.1711 141.728 3.34129 141.995 3.48717H148.657V1.80959C148.657 1.11262 148.592 0.666889 148.462 0.480491C148.389 0.32651 148.389 0.213051 148.462 0.140112C148.519 0.067174 148.616 0.0347569 148.746 0.0509655C148.973 0.067174 149.313 0.1158 149.767 0.180634C150.221 0.245468 150.675 0.318406 151.129 0.391344C151.582 0.464283 151.931 0.545325 152.182 0.618263C152.393 0.674993 152.474 0.804661 152.433 1.01537C152.417 1.24229 152.288 1.35575 152.061 1.35575C151.874 1.37196 151.712 1.42058 151.574 1.49352C151.445 1.56646 151.38 1.72044 151.38 1.94736V3.47907H156.996C157.239 3.47907 157.418 3.41423 157.539 3.27646C157.612 3.17921 157.734 3.04144 157.896 2.84693C158.058 2.66054 158.22 2.46603 158.382 2.26343C158.544 2.06082 158.649 1.93115 158.706 1.85011C158.876 1.66371 159.095 1.62319 159.363 1.73665C159.573 1.8339 159.833 2.00409 160.157 2.24722C160.481 2.49035 160.797 2.74158 161.105 2.98471C161.413 3.22783 161.632 3.42234 161.745 3.552C161.899 3.70599 161.948 3.86807 161.899 4.04636C161.851 4.22466 161.745 4.3138 161.575 4.3138H141.663V10.3839H148.957V8.05797H144.815C144.005 8.07418 143.349 8.12281 142.854 8.19574L142.571 7.03684C143.178 7.10977 143.916 7.1665 144.783 7.20702H148.957V6.55058C148.957 5.74015 148.884 5.19717 148.73 4.92973C148.657 4.80006 148.657 4.6866 148.73 4.58935C148.786 4.51641 148.884 4.48399 149.013 4.50831C149.24 4.52452 149.564 4.57314 149.978 4.63797C150.391 4.70281 150.813 4.77575 151.226 4.84869C151.639 4.92162 151.963 4.98646 152.19 5.05129C152.417 5.10802 152.514 5.2539 152.474 5.47271C152.458 5.68342 152.336 5.80499 152.109 5.84551C151.923 5.86172 151.753 5.91034 151.615 5.99139C151.477 6.06432 151.404 6.21831 151.404 6.44522V7.21513H154.889C155.043 7.21513 155.173 7.1584 155.286 7.04494L155.934 6.16968C156.088 5.98328 156.275 5.95086 156.502 6.08053C156.802 6.23451 157.191 6.45333 157.653 6.74508C158.114 7.03684 158.471 7.27996 158.714 7.46636C158.868 7.57982 158.941 7.7257 158.941 7.89589C158.941 8.06608 158.836 8.19574 158.633 8.293L158.236 8.4875C158.009 8.61717 157.896 8.8765 157.896 9.2574V10.392H158.406C158.593 10.392 158.739 10.3272 158.828 10.1894C158.925 10.0597 159.087 9.84091 159.322 9.54105C159.557 9.24119 159.727 9.03048 159.816 8.91702C159.946 8.73063 160.141 8.69821 160.384 8.83598C160.554 8.94944 160.765 9.11963 161.008 9.34655C161.251 9.57347 161.494 9.79228 161.729 10.0111C161.964 10.2299 162.142 10.4163 162.256 10.5622C162.41 10.7162 162.458 10.8701 162.394 11.0322C162.337 11.1943 162.223 11.2754 162.053 11.2754H157.912C157.952 12.0858 157.985 12.8314 158.025 13.504C158.066 14.1767 158.082 14.5576 158.082 14.6548C158.082 14.7845 158.025 14.9061 157.912 15.0276C157.928 15.0438 157.952 15.0519 157.969 15.0519C158.155 15.1654 158.414 15.3518 158.739 15.6192C159.063 15.8867 159.379 16.146 159.703 16.4135C160.027 16.6809 160.27 16.8916 160.44 17.0618C160.538 17.1591 160.538 17.2887 160.44 17.4589C160.327 17.6291 160.181 17.6777 160.011 17.5967C159.857 17.4994 159.719 17.4508 159.598 17.4427C159.476 17.4346 159.281 17.4832 159.014 17.5967C158.544 17.7831 157.96 17.9938 157.28 18.2207C156.599 18.4476 155.983 18.6421 155.44 18.8123C156.518 19.566 157.669 20.1657 158.901 20.6034C160.132 21.041 161.316 21.3733 162.45 21.6002C161.867 21.8433 161.316 22.2404 160.805 22.7753C160.295 23.3183 159.938 23.8126 159.727 24.2665C158.593 23.7559 157.482 23.0833 156.404 22.2404C155.327 21.3976 154.354 20.3845 153.487 19.1932C152.62 18.0019 151.915 16.6566 151.388 15.1654V15.9596C151.388 16.5999 151.388 17.2725 151.404 17.9776C151.42 18.6827 151.42 19.3472 151.437 19.9793C151.445 20.6115 151.453 21.1544 151.469 21.6002C151.477 22.0459 151.485 22.3296 151.485 22.4673C151.485 23.3588 151.242 24.0558 150.764 24.5663C150.278 25.0769 149.427 25.4659 148.195 25.7253H148.171ZM146.047 19.2013C145.804 19.2986 145.561 19.3148 145.326 19.2581C145.091 19.2013 144.921 19.0311 144.832 18.7475C144.621 18.0667 144.329 17.4265 143.948 16.8349C143.567 16.2433 143.13 15.7813 142.611 15.4572C142.514 15.1897 142.603 15.0195 142.87 14.9466C143.778 15.0195 144.613 15.2383 145.366 15.5949C146.12 15.9515 146.615 16.4378 146.841 17.0456C147.052 17.6129 147.052 18.0829 146.841 18.4638C146.631 18.8447 146.371 19.0879 146.047 19.2013ZM151.38 10.4082H155.408V8.08228H151.38V10.4082ZM151.38 13.6742H155.408V11.2916H151.38V13.6742ZM154.727 18.2936C155.108 17.9695 155.537 17.5643 156.015 17.0618C156.502 16.5593 156.883 16.1379 157.166 15.7975C157.336 15.5706 157.442 15.4004 157.482 15.287C157.045 15.4734 156.575 15.5706 156.064 15.5706C155.626 15.5706 155.408 15.3842 155.408 15.0033V14.5252H151.745C152.125 15.3032 152.571 16.0001 153.082 16.6242C153.592 17.2482 154.143 17.8074 154.727 18.2936Z" fill="#524847"/>
<path d="M172.597 11.2352C172.257 11.4054 171.989 11.3648 171.803 11.1217C171.576 10.7975 171.616 10.522 171.916 10.2951C172.411 9.93848 172.856 9.55758 173.262 9.16047C173.667 8.76336 173.983 8.23659 174.21 7.57204C174.323 7.23166 174.348 6.9318 174.283 6.66436C174.218 6.39692 173.983 6.25104 173.586 6.21052C172.945 6.13758 172.411 5.93498 171.981 5.61891C171.552 5.29474 171.341 4.81659 171.341 4.16825C171.341 3.64147 171.535 3.16332 171.932 2.75C172.33 2.33669 172.889 2.12598 173.602 2.12598C174.315 2.12598 174.915 2.40963 175.442 2.97692C175.968 3.54422 176.236 4.29792 176.236 5.24612C176.236 6.19431 176.058 6.98043 175.693 7.72602C175.328 8.47161 174.874 9.13616 174.315 9.72777C173.756 10.3113 173.172 10.8137 172.573 11.2271L172.597 11.2352ZM178.999 11.2352C178.659 11.4054 178.392 11.3648 178.205 11.1217C177.978 10.7975 178.019 10.522 178.319 10.2951C178.813 9.93848 179.259 9.55758 179.664 9.16047C180.069 8.76336 180.385 8.23659 180.612 7.57204C180.726 7.23166 180.75 6.9318 180.685 6.66436C180.62 6.39692 180.385 6.25104 179.988 6.21052C179.348 6.13758 178.813 5.93498 178.383 5.61891C177.954 5.30285 177.743 4.81659 177.743 4.16825C177.743 3.64147 177.946 3.16332 178.343 2.75C178.74 2.33669 179.299 2.12598 180.012 2.12598C180.726 2.12598 181.325 2.40963 181.852 2.97692C182.379 3.54422 182.646 4.29792 182.646 5.24612C182.646 6.19431 182.468 6.98043 182.103 7.72602C181.747 8.47161 181.285 9.13616 180.726 9.72777C180.166 10.3113 179.583 10.8137 178.983 11.2271L178.999 11.2352Z" fill="#524847"/>
<path d="M201.497 24.4772C199.722 24.4772 198.271 24.2098 197.145 23.6668C196.018 23.1238 195.435 22.281 195.402 21.1302C195.362 20.2387 195.645 19.4931 196.253 18.8934C196.861 18.2856 197.607 17.7021 198.498 17.1348C198.798 16.9484 199.155 16.7296 199.544 16.4945C199.941 16.2595 200.37 16.0002 200.824 15.7165C200.783 15.0358 200.694 14.3793 200.557 13.7553C200.411 13.1313 200.2 12.6207 199.9 12.2236C199.608 11.8265 199.203 11.632 198.693 11.632C198.012 11.632 197.363 11.8265 196.748 12.2155C196.132 12.6045 195.572 13.0989 195.078 13.7067C194.576 14.3145 194.146 14.9466 193.79 15.6031C193.449 16.2109 193.093 16.527 192.712 16.5675C192.331 16.608 191.998 16.4135 191.715 16.0002C191.358 15.4491 191.253 14.9709 191.415 14.5657C191.577 14.1605 191.853 13.7877 192.25 13.4473C192.987 12.8395 193.814 11.9886 194.73 10.8945C195.645 9.80042 196.48 8.65772 197.242 7.45829C196.942 7.4745 196.642 7.49071 196.35 7.49881C196.059 7.50692 195.775 7.51502 195.516 7.51502C194.454 7.53123 193.692 7.23948 193.23 6.62355C192.768 6.00763 192.517 5.28635 192.477 4.45161C192.631 4.2409 192.817 4.21659 193.044 4.37057C193.198 4.89735 193.473 5.24583 193.879 5.40791C194.284 5.57 194.811 5.65104 195.451 5.65104C195.888 5.65104 196.367 5.62673 196.885 5.5781C197.404 5.52948 197.931 5.47275 198.458 5.39171C198.587 5.16479 198.709 4.93787 198.814 4.71095C198.919 4.48403 199.017 4.26521 199.114 4.06261C199.625 2.74161 199.381 1.90687 198.377 1.5665C198.32 1.46924 198.304 1.36389 198.336 1.25043C198.36 1.13697 198.425 1.06403 198.522 1.02351C198.976 1.0073 199.495 1.08834 200.07 1.26664C200.646 1.44493 201.083 1.64754 201.391 1.87446C201.715 2.10138 201.878 2.36882 201.886 2.68488C201.894 3.00095 201.797 3.26029 201.586 3.46289C201.456 3.59256 201.31 3.76275 201.148 3.97346C200.986 4.18417 200.856 4.36246 200.767 4.51645C200.727 4.58938 200.686 4.67043 200.629 4.75957C200.573 4.84062 200.524 4.93787 200.492 5.02701C200.759 4.97028 201.002 4.90545 201.229 4.82441C201.456 4.75147 201.667 4.67043 201.853 4.59749C202.04 4.50024 202.234 4.45161 202.437 4.45161C202.639 4.45161 202.899 4.54076 203.215 4.71095C203.798 5.03512 204.082 5.39171 204.066 5.78881C204.049 6.18592 203.733 6.47768 203.134 6.66407C202.737 6.77753 202.169 6.89099 201.432 7.00445C200.694 7.11791 199.9 7.22327 199.049 7.31241C198.555 8.09042 198.052 8.86033 197.534 9.63834C197.015 10.4163 196.553 11.0728 196.156 11.6239C196.537 11.3402 196.95 11.1052 197.404 10.9107C197.858 10.7243 198.344 10.6271 198.855 10.6271C199.803 10.6271 200.557 10.8864 201.124 11.397C201.691 11.9075 202.137 12.5397 202.461 13.2934C202.761 12.4019 203.174 11.5753 203.693 10.7972C204.212 10.0192 204.836 9.39521 205.565 8.90895C206.294 8.4227 207.113 8.18767 208.021 8.18767C209.001 8.18767 209.787 8.35786 210.363 8.69824C210.938 9.03862 211.327 9.45194 211.53 9.93009C211.732 10.4163 211.749 10.8621 211.603 11.2754C211.449 11.6887 211.141 11.9886 210.671 12.1507C210.063 12.3614 209.342 12.6531 208.499 13.0259C207.656 13.4068 206.773 13.8282 205.849 14.2902C204.925 14.7521 204.009 15.2303 203.093 15.7246C203.19 16.4216 203.247 17.1024 203.28 17.7507C203.312 18.4071 203.32 18.9663 203.32 19.4364C203.32 19.9064 203.19 20.2792 202.923 20.5548C202.656 20.8303 202.348 20.9681 201.991 20.9681C201.634 20.9681 201.351 20.8546 201.14 20.6277C200.929 20.4008 200.824 20.1009 200.824 19.72C200.824 19.4931 200.84 19.1284 200.865 18.626C200.889 18.1235 200.905 17.5724 200.905 16.9646C200.548 17.1753 200.216 17.3698 199.908 17.5562C199.608 17.7426 199.325 17.9371 199.057 18.1235C198.53 18.4801 198.141 18.8529 197.89 19.2338C197.647 19.6147 197.542 20.0361 197.582 20.5142C197.623 21.1788 198.004 21.6164 198.733 21.8352C199.462 22.0541 200.443 22.1594 201.667 22.1594C202.558 22.1594 203.458 22.0946 204.366 21.973C205.273 21.8515 205.995 21.7056 206.521 21.5354C206.805 21.4381 207.024 21.3976 207.17 21.4057C207.324 21.4138 207.518 21.4706 207.769 21.5597C208.337 21.7866 208.718 22.0622 208.904 22.3944C209.09 22.7267 209.123 23.0347 208.985 23.3183C208.855 23.602 208.572 23.7965 208.134 23.9099C207.38 24.0963 206.4 24.2341 205.2 24.3233C204.001 24.4124 202.777 24.4529 201.529 24.4529L201.497 24.4772ZM202.915 14.4928C203.823 13.9417 204.722 13.3987 205.622 12.8476C206.521 12.2965 207.299 11.786 207.964 11.3159C208.628 10.8621 208.912 10.4326 208.831 10.0273C208.75 9.62213 208.361 9.41952 207.68 9.41952C206.886 9.41952 206.173 9.67075 205.541 10.1732C204.909 10.6757 204.366 11.3159 203.928 12.0858C203.482 12.8638 203.15 13.6662 202.923 14.5009L202.915 14.4928Z" fill="#524847"/>
<path d="M231.133 21.5599C230.889 21.3492 230.865 21.1223 231.076 20.8791C231.984 20.709 232.932 20.4901 233.912 20.2227C234.893 19.9553 235.849 19.6311 236.781 19.234C237.705 18.8369 238.54 18.3587 239.277 17.7833C240.015 17.216 240.606 16.5515 241.052 15.7978C241.498 15.0441 241.717 14.1688 241.717 13.1882C241.717 11.4458 241.206 10.0843 240.185 9.10366C239.164 8.12304 237.835 7.64489 236.19 7.68541C235.055 7.68541 233.945 7.91233 232.859 8.36617C231.773 8.82001 230.776 9.36299 229.868 9.98702C228.961 10.611 228.199 11.2027 227.575 11.7781C227.064 12.2319 226.619 12.5642 226.238 12.783C225.857 13.0018 225.435 13.1072 224.957 13.1072C224.349 13.1072 223.806 12.9289 223.328 12.5804C222.842 12.2319 222.453 11.77 222.153 11.1946C221.853 10.6192 221.643 10.0275 221.529 9.41972C221.659 9.15228 221.853 9.09555 222.096 9.24953C222.566 9.91408 223.304 10.2139 224.309 10.1572C224.649 10.141 225.127 9.99513 225.751 9.73579C226.375 9.46835 227.097 9.14418 227.907 8.75517C228.718 8.36617 229.593 7.97716 230.517 7.59626C231.441 7.20726 232.381 6.88309 233.337 6.61565C234.293 6.34821 235.225 6.21044 236.133 6.19423C237.892 6.15371 239.399 6.43736 240.647 7.04518C241.895 7.653 242.851 8.47152 243.516 9.50887C244.18 10.5462 244.505 11.7375 244.505 13.0828C244.505 14.4282 244.197 15.6033 243.581 16.5596C242.965 17.5159 242.154 18.302 241.141 18.9179C240.128 19.5338 239.026 20.0282 237.835 20.3929C236.644 20.7657 235.46 21.0331 234.285 21.2033C233.11 21.3735 232.065 21.4951 231.133 21.5761V21.5599Z" fill="#524847"/>
<path d="M264.296 24.1936C262.708 24.1936 261.452 24.0396 260.536 23.7398C259.62 23.4399 258.964 23.0023 258.566 22.435C258.169 21.8677 257.967 21.195 257.967 20.417C257.967 20.0361 258.007 19.6876 258.096 19.3554C258.177 19.0231 258.283 18.6989 258.396 18.3747C257.902 18.2451 257.472 17.9695 257.091 17.5643C256.711 17.1591 256.451 16.5837 256.297 15.8462C256.241 15.522 256.176 15.1817 256.111 14.8089C256.046 14.4361 255.989 14.0552 255.957 13.6581C255.787 12.3938 255.989 11.4375 256.548 10.7892C257.116 10.1489 257.837 9.7275 258.704 9.5411C259.004 9.48437 259.28 9.46816 259.531 9.48437C259.531 9.1602 259.531 8.86034 259.547 8.57669C259.563 8.29304 259.563 8.04991 259.563 7.8392V7.6366C258.939 7.75006 258.323 7.80679 257.724 7.80679C256.662 7.82299 255.908 7.58797 255.454 7.08551C255.001 6.58304 254.733 5.90229 254.66 5.02703C254.733 4.91357 254.83 4.84063 254.944 4.81631C255.057 4.7839 255.155 4.81631 255.227 4.88925C255.381 5.3593 255.641 5.69158 256.022 5.86987C256.403 6.04816 256.937 6.1292 257.643 6.113C257.967 6.09679 258.291 6.06437 258.623 6.01575C258.955 5.96712 259.28 5.91039 259.604 5.82935C259.604 5.39172 259.604 4.9784 259.62 4.58129C259.628 4.18418 259.644 3.86001 259.66 3.61688C259.66 3.04959 259.474 2.67679 259.093 2.5066C258.793 2.37693 258.461 2.28779 258.104 2.25537C257.894 2.04466 257.894 1.85826 258.104 1.68807C258.485 1.59082 258.98 1.56651 259.604 1.61513C260.228 1.66376 260.779 1.79343 261.249 1.99603C261.687 2.18243 261.938 2.43366 262.003 2.73352C262.067 3.03338 262.003 3.31703 261.792 3.58447C261.695 3.71414 261.606 3.92485 261.524 4.19229C261.443 4.46783 261.37 4.82442 261.314 5.25394C261.541 5.15669 261.751 5.05944 261.954 4.95409C262.157 4.84873 262.343 4.75148 262.537 4.65423C262.821 4.46783 263.251 4.52456 263.818 4.82442C264.288 4.99461 264.539 5.26205 264.555 5.61864C264.572 5.97522 264.353 6.25887 263.907 6.46958C263.551 6.63977 263.129 6.79375 262.659 6.93963C262.189 7.08551 261.695 7.21518 261.184 7.35295L261.16 7.75006C261.16 8.20389 261.16 8.62532 261.176 9.02242C261.184 9.41953 261.2 9.80854 261.216 10.1894C261.597 10.546 261.832 10.9756 261.938 11.4699C262.043 11.9643 262.019 12.5073 261.865 13.1151C261.711 13.7553 261.492 14.4118 261.208 15.0763C260.925 15.7409 260.698 16.2514 260.528 16.608C260.471 16.7377 260.43 16.8917 260.414 17.0618C260.398 17.232 260.398 17.386 260.414 17.5157C260.414 17.6454 260.366 17.7912 260.276 17.9533C260.179 18.1154 260.041 18.2289 259.847 18.3099C259.677 18.8367 259.588 19.3878 259.588 19.9551C259.588 20.7493 259.96 21.268 260.706 21.503C261.452 21.738 262.651 21.8596 264.296 21.8596C265.415 21.8596 266.46 21.7461 267.441 21.5192C268.421 21.2923 269.215 20.9438 269.823 20.4737C270.431 20.0037 270.731 19.4121 270.731 18.7151C270.731 18.2045 270.658 17.5481 270.504 16.7458C270.35 15.9435 270.196 15.0034 270.034 13.9417C269.872 12.8801 269.791 11.7049 269.791 10.4407C269.791 9.3628 269.864 8.52806 270.018 7.94456C270.172 7.36105 270.391 6.93963 270.674 6.68029C270.958 6.42096 271.298 6.25887 271.695 6.18593C272.246 6.07247 272.814 6.1211 273.397 6.33992C273.981 6.55873 274.524 6.89101 275.026 7.34484C275.529 7.79868 275.901 8.32546 276.145 8.93328C276.598 9.67077 276.623 10.4569 276.226 11.2916C276.039 11.6725 275.788 11.8751 275.472 11.8994C275.156 11.9319 274.84 11.8184 274.524 11.5753C274.143 11.2511 273.705 11.0728 273.195 11.0323C272.684 10.9918 272.101 10.9918 271.436 11.0323C271.225 10.8459 271.209 10.6433 271.379 10.4407C271.59 10.4001 271.898 10.3434 272.303 10.2543C272.708 10.1651 273.008 10.1003 273.195 10.0436C273.535 9.91389 273.64 9.61404 273.503 9.1683C273.405 8.7874 273.187 8.45513 272.838 8.17148C272.49 7.88783 272.182 7.76626 271.914 7.79868C271.671 7.8392 271.46 7.93645 271.29 8.09854C271.12 8.26062 270.99 8.54427 270.909 8.94949C270.828 9.3547 270.78 9.95441 270.78 10.7486C270.78 11.9562 270.901 13.0583 271.152 14.039C271.395 15.0196 271.655 15.9191 271.922 16.7377C272.109 17.3779 272.279 17.9857 272.433 18.553C272.587 19.1203 272.652 19.6633 272.635 20.1739C272.595 21.4381 271.865 22.4269 270.439 23.14C269.013 23.8532 266.971 24.2017 264.329 24.2017L264.296 24.1936ZM258.226 15.5707C258.469 15.7246 258.664 15.7652 258.81 15.7003C258.947 15.6355 259.061 15.3113 259.134 14.7197C259.174 14.5495 259.199 14.3631 259.215 14.1686C259.231 13.966 259.255 13.7634 259.271 13.5608C259.369 12.5802 259.344 11.9237 259.199 11.5915C259.061 11.2592 258.769 11.1457 258.331 11.2349C257.878 11.3078 257.545 11.5753 257.326 12.0129C257.108 12.4586 257.075 13.107 257.229 13.9579C257.399 14.7521 257.732 15.287 258.226 15.5788V15.5707Z" fill="#524847"/>
<path d="M297.111 25.3283C296.471 25.7254 295.952 25.4904 295.555 24.6151C295.085 23.5372 294.518 22.3945 293.853 21.1789C293.189 19.9714 292.459 18.78 291.665 17.6049C290.871 16.4298 290.004 15.3762 289.055 14.428C288.755 14.1039 288.537 13.8445 288.399 13.65C288.269 13.4555 288.196 13.18 288.196 12.8396C288.196 12.483 288.269 12.1751 288.407 11.9319C288.545 11.6888 288.78 11.3808 289.104 11.0243C289.461 10.6434 289.914 10.149 290.449 9.53307C290.992 8.91714 291.551 8.2607 292.135 7.56373C292.718 6.86677 293.278 6.17791 293.796 5.50525C294.315 4.8326 294.728 4.2653 295.028 3.78715C295.409 3.23606 295.555 2.7498 295.482 2.32838C295.409 1.90696 295.174 1.54227 294.769 1.23431C294.753 1.12085 294.769 1.01549 294.842 0.926347C294.907 0.829096 294.996 0.788574 295.109 0.788574C295.45 0.861513 295.879 1.0236 296.398 1.26673C296.916 1.50985 297.387 1.82592 297.8 2.20682C298.14 2.50668 298.351 2.81464 298.424 3.1307C298.497 3.43867 298.464 3.73852 298.31 4.02217C298.181 4.28961 297.978 4.52464 297.719 4.73535C297.451 4.94606 297.143 5.19729 296.779 5.49715C296.309 5.89426 295.774 6.38051 295.174 6.95591C294.574 7.53132 293.975 8.13914 293.375 8.77127C292.767 9.4034 292.216 9.98691 291.714 10.5137C291.211 11.0405 290.822 11.4619 290.538 11.7617C290.352 11.9724 290.214 12.1426 290.125 12.2723C290.036 12.402 289.995 12.5722 289.995 12.7829C289.995 12.9693 290.044 13.1476 290.149 13.3097C290.255 13.4717 290.474 13.6987 290.814 14.0066C291.325 14.4605 291.908 15.0115 292.556 15.668C293.205 16.3163 293.869 17.0214 294.526 17.7832C295.19 18.5369 295.79 19.2906 296.341 20.0362C296.892 20.7818 297.322 21.4625 297.646 22.0623C298.027 22.7835 298.14 23.44 297.986 24.0316C297.832 24.6232 297.532 25.0608 297.079 25.3202L297.111 25.3283ZM302.022 12.3696C301.585 12.5235 301.277 12.3615 301.082 11.8833C300.855 11.1863 300.539 10.4732 300.134 9.75999C299.729 9.03871 299.234 8.43089 298.643 7.92032C298.626 7.79065 298.643 7.67719 298.716 7.59615C298.78 7.507 298.861 7.45838 298.959 7.44217C299.51 7.61236 300.037 7.85549 300.547 8.17966C301.058 8.50383 301.503 8.86041 301.892 9.25752C302.281 9.65463 302.541 10.0598 302.671 10.4732C302.824 10.9432 302.833 11.3484 302.703 11.6969C302.573 12.0373 302.346 12.2642 302.022 12.3777V12.3696ZM305.199 9.7843C305.029 9.89776 304.851 9.94638 304.672 9.92207C304.494 9.90586 304.324 9.76809 304.178 9.52496C303.781 8.91714 303.311 8.32553 302.76 7.73392C302.209 7.14231 301.601 6.67227 300.92 6.31568C300.79 6.04824 300.855 5.86994 301.123 5.77269C301.933 5.84563 302.76 6.06445 303.586 6.42103C304.421 6.77762 305.013 7.23146 305.377 7.78255C305.645 8.16345 305.75 8.53624 305.701 8.91714C305.653 9.29804 305.491 9.58169 305.207 9.76809L305.199 9.7843Z" fill="#524847"/>
<path d="M322.525 25.1014C322.201 25.1744 321.893 25.1582 321.601 25.0447C321.309 24.9312 321.074 24.6638 320.904 24.2505C320.434 23.2456 319.785 22.2812 318.959 21.3411C318.132 20.401 317.2 19.6149 316.163 18.9746C316.033 18.8449 315.993 18.7072 316.049 18.5775C316.106 18.4478 316.212 18.3668 316.366 18.3506C317.443 18.3506 318.505 18.5046 319.542 18.8206C320.58 19.1367 321.471 19.5743 322.225 20.1416C322.97 20.7089 323.457 21.3573 323.684 22.1029C323.951 22.8403 323.943 23.4887 323.667 24.0479C323.392 24.6071 323.011 24.9556 322.517 25.1095L322.525 25.1014Z" fill="#524847"/>
<path d="M0 89.0294V58.2251H16.3139V60.6483H2.75545V89.0294H0Z" fill="#524847"/>
<path d="M37.9763 108.099C37.1335 108.099 36.7121 107.71 36.7121 106.94C36.7121 106.794 36.7283 106.211 36.7688 105.206C36.8012 104.193 36.8498 102.888 36.9066 101.291C36.9633 99.6949 37.0038 97.9362 37.0443 96.0317C37.0767 94.1191 37.1173 92.1903 37.1578 90.2453C37.1902 88.3003 37.2145 86.4768 37.2145 84.7911V78.6157C36.0718 80.3095 34.8967 81.8736 33.6892 83.3243C32.4816 84.7749 31.266 86.1283 30.0504 87.3764C29.4587 87.4493 29.167 87.2143 29.167 86.6632C30.3016 84.937 31.42 83.0001 32.4978 80.8525C33.5838 78.7048 34.5968 76.46 35.5531 74.1259C36.5094 71.7919 37.3361 69.4984 38.033 67.2373C38.73 64.9762 39.2649 62.8934 39.6296 60.9808C39.743 60.4703 39.816 60.0245 39.8484 59.6598C39.8808 59.2951 39.9051 58.9629 39.9051 58.6711C39.8322 58.2335 40.051 58.0633 40.5697 58.1767C41.1532 58.3226 41.8988 58.5495 42.7984 58.8656C43.6979 59.1817 44.5975 59.4896 45.4971 59.8057C46.3966 60.1218 47.1017 60.3811 47.6204 60.608C47.9851 60.7215 48.0985 60.997 47.9527 61.4347C47.8797 61.8399 47.6366 62.0425 47.2395 62.0425C46.7613 61.9695 46.3885 61.9858 46.113 62.0992C45.8375 62.2127 45.6105 62.5206 45.4241 63.0393C44.9055 64.4008 44.3463 65.7299 43.7465 67.0347C43.1387 68.3395 42.5228 69.62 41.8988 70.868V87.9275C41.8988 89.2728 41.9069 90.7397 41.9231 92.3362C41.9393 93.9327 41.9474 95.5455 41.9474 97.1582C41.9474 98.771 41.9555 100.278 41.9717 101.68C41.9879 103.074 41.996 104.209 41.996 105.068V106.47C41.996 106.948 41.5584 107.345 40.675 107.653C39.7917 107.961 38.8921 108.123 37.9763 108.123V108.099ZM45.1405 71.3381L44.5894 68.9149C45.9833 69.1337 47.6528 69.2796 49.6059 69.3525H71.2605C71.7387 69.3525 72.0871 69.2066 72.306 68.9149C72.5248 68.6231 72.8732 68.1531 73.3514 67.5129C73.8296 66.8726 74.1618 66.4188 74.3401 66.1594C74.6319 65.7542 75.0371 65.6975 75.5558 65.9974C75.9205 66.2162 76.3986 66.5647 76.9902 67.0428C77.5737 67.521 78.141 67.9991 78.6678 68.4773C79.2027 68.9554 79.5917 69.3444 79.851 69.6362C80.1428 69.9279 80.2481 70.244 80.1509 70.5763C80.0617 70.9085 79.8672 71.0706 79.5755 71.0706H76.7066C75.4909 71.0706 74.016 71.0706 72.2735 71.0463C70.5311 71.0301 68.6752 71.022 66.7059 71.022H55.5707C53.9336 71.022 52.5964 71.0301 51.5509 71.0463C50.5055 71.0625 49.8734 71.0706 49.6464 71.0706C47.7338 71.1111 46.2265 71.2003 45.1243 71.3462L45.1405 71.3381ZM50.1003 108.099C49.2169 108.099 48.7793 107.694 48.7793 106.883C48.7793 106.551 48.8036 105.765 48.8603 104.517C48.9171 103.269 48.9738 101.77 49.0224 100.027C49.0792 98.2847 49.1035 96.5504 49.1035 94.8161C49.1035 93.3087 49.0548 92.1255 48.9657 91.2583C48.8765 90.3912 48.7388 89.759 48.5524 89.3538C48.4794 89.135 48.5119 88.9486 48.6658 88.8027C48.8117 88.6569 48.9738 88.6407 49.1602 88.746C49.5978 88.8595 50.1813 89.0621 50.8945 89.3538C51.6077 89.6456 52.3371 89.9616 53.0746 90.2939C53.812 90.6262 54.4118 90.9179 54.8899 91.1773H68.0593C68.3916 91.1773 68.6428 91.0476 68.8292 90.7883C69.0156 90.5695 69.2506 90.2534 69.5424 89.8482C69.8342 89.443 70.053 89.1107 70.207 88.8595C70.4987 88.4948 70.9039 88.4218 71.4226 88.6407C71.8278 88.8271 72.3465 89.1026 72.9948 89.4673C73.6351 89.832 74.2834 90.2048 74.9236 90.5695C75.5639 90.9342 76.0744 91.2502 76.4391 91.5096C76.7714 91.7284 76.9254 92.012 76.9092 92.3605C76.893 92.709 76.6579 92.9764 76.2203 93.1628C76.0744 93.2763 75.9205 93.3735 75.7503 93.4627C75.5882 93.5518 75.4099 93.641 75.2235 93.7139C74.9642 93.8598 74.7696 94.0543 74.6481 94.2893C74.5184 94.5324 74.4536 94.889 74.4536 95.3672C74.4536 96.2505 74.4698 97.2393 74.5103 98.3414C74.5427 99.4436 74.5832 100.521 74.6238 101.567C74.6562 102.612 74.6967 103.504 74.7372 104.241C74.7696 104.979 74.794 105.416 74.794 105.562C74.794 106.073 74.332 106.519 73.4162 106.883C72.5005 107.248 71.4874 107.434 70.3852 107.434C69.5424 107.434 69.121 107.07 69.121 106.332V104.29H54.355V106.276C54.355 106.786 53.9012 107.224 53.0016 107.572C52.102 107.921 51.1376 108.099 50.1084 108.099H50.1003ZM49.1602 78.5022L48.6091 76.0791C49.9706 76.3384 51.6401 76.5005 53.6256 76.5734H67.7919C68.1971 76.5734 68.5051 76.4437 68.732 76.1844C68.9184 75.8927 69.2425 75.4469 69.7207 74.8634C70.1988 74.2799 70.5068 73.8747 70.6608 73.6478C70.9931 73.2831 71.3578 73.2264 71.763 73.4857C72.0952 73.7045 72.5167 74.0287 73.0272 74.4501C73.5378 74.8715 74.0403 75.301 74.5184 75.7468C74.9966 76.1844 75.3451 76.5572 75.5639 76.849C75.8556 77.1407 75.961 77.4487 75.8637 77.7566C75.7746 78.0727 75.5639 78.2267 75.2316 78.2267H72.0385C70.8958 78.2267 69.5829 78.2186 68.0998 78.2024C66.6087 78.1862 65.0851 78.1781 63.529 78.1781H59.096C57.7021 78.1781 56.5108 78.1862 55.5382 78.2024C54.5657 78.2186 53.9336 78.2267 53.6337 78.2267C51.7617 78.2591 50.2705 78.3563 49.1683 78.5022H49.1602ZM49.1602 85.7231L48.6091 83.3567C49.9706 83.5755 51.6401 83.7214 53.6256 83.7943H67.7919C68.1971 83.7943 68.5051 83.6646 68.732 83.4053C68.9184 83.1135 69.2425 82.6678 69.7207 82.0843C70.1988 81.5008 70.5068 81.0956 70.6608 80.8687C70.9931 80.504 71.3578 80.4635 71.763 80.7552C72.0952 80.9416 72.5167 81.2415 73.0272 81.6629C73.5378 82.0843 74.0403 82.5138 74.5184 82.9596C74.9966 83.3972 75.3451 83.77 75.5639 84.0617C75.8556 84.394 75.961 84.702 75.8637 85.0018C75.7746 85.2936 75.5639 85.4395 75.2316 85.4395H72.0385C70.8958 85.4395 69.5829 85.4395 68.0998 85.4152C66.6087 85.3989 65.0851 85.3908 63.529 85.3908H59.096C57.7021 85.3908 56.5108 85.3989 55.5382 85.4152C54.5657 85.4314 53.9336 85.4395 53.6337 85.4395C51.7617 85.48 50.2705 85.5691 49.1683 85.715L49.1602 85.7231ZM49.379 64.0604L48.8279 61.6373C50.2219 61.8561 51.8913 62.002 53.8445 62.0749H67.565C67.9702 62.0749 68.2619 61.9452 68.4483 61.6859C68.6347 61.4266 68.9751 60.9889 69.4695 60.3649C69.9638 59.7409 70.3042 59.3194 70.4906 59.1006C70.8229 58.7359 71.1876 58.6792 71.5928 58.9385C71.9251 59.1574 72.3546 59.4896 72.8895 59.9273C73.4243 60.3649 73.9349 60.8187 74.4293 61.2807C74.9236 61.7426 75.3045 62.1154 75.5558 62.4072C75.8475 62.6989 75.9448 63.0069 75.8313 63.3148C75.7178 63.6309 75.499 63.7849 75.1668 63.7849H71.9737C70.5798 63.7525 68.9265 63.7282 67.0139 63.7282H56.5189C55.1411 63.7282 54.2659 63.7444 53.9012 63.7849C51.9886 63.8254 50.4812 63.9146 49.379 64.0604ZM54.3388 102.637H69.1048V92.8792H54.3388V102.637Z" fill="#524847"/>
<path d="M102.892 108.099C102.154 108.099 101.79 107.751 101.79 107.054C101.79 106.867 101.806 106.259 101.846 105.238C101.879 104.209 101.919 102.953 101.96 101.462C101.992 99.9706 102.033 98.4713 102.073 96.9396C102.106 95.416 102.13 94.0626 102.13 92.8874C100.623 95.2053 98.9695 97.2962 97.1703 99.1682C95.3712 101.04 93.572 102.677 91.7729 104.071C91.5135 104.071 91.3109 103.99 91.1651 103.82C91.0192 103.658 90.9624 103.463 91.003 103.245C92.2186 101.851 93.4586 100.197 94.7228 98.2849C95.9871 96.3723 97.1865 94.3138 98.3049 92.1094C99.4233 89.9051 100.355 87.7169 101.085 85.5531H98.2725V87.0929C98.2725 87.4981 97.9159 87.8466 97.1946 88.1383C96.4815 88.4301 95.6953 88.576 94.8525 88.576C94.115 88.576 93.7503 88.2275 93.7503 87.5305C93.7503 87.3117 93.7746 86.6715 93.8314 85.6017C93.8881 84.5401 93.9448 83.2029 93.9934 81.6063C94.0502 80.0098 94.0745 78.2917 94.0745 76.452C94.0745 74.8393 94.0502 73.6236 93.9934 72.8132C93.9367 72.0028 93.8395 71.3625 93.6936 70.8844C93.6206 70.6656 93.6531 70.4792 93.807 70.3333C93.9529 70.2198 94.1393 70.2036 94.3581 70.2766C94.6499 70.39 95.0956 70.5683 95.6791 70.8276C96.2626 71.087 96.8624 71.3463 97.4702 71.5976C98.078 71.8569 98.5805 72.0919 98.9857 72.3107H102.13V67.2942H96.0681C94.5607 67.3347 93.3289 67.4239 92.3726 67.5697L91.8215 65.2033C93.0371 65.4221 94.4473 65.568 96.0681 65.6409H102.13V62.0588C102.13 60.519 101.984 59.4898 101.692 58.9711C101.547 58.7523 101.547 58.5497 101.692 58.3633C101.806 58.2174 101.984 58.1607 102.244 58.2012C102.908 58.2417 103.808 58.3633 104.942 58.5902C106.077 58.809 107.017 59.0116 107.754 59.198C108.16 59.3115 108.322 59.5627 108.249 59.9679C108.208 60.3732 107.973 60.6082 107.536 60.6811C107.171 60.7135 106.855 60.8027 106.596 60.9324C106.336 61.062 106.207 61.3457 106.207 61.7833V65.6409H108.962C109.367 65.6409 109.675 65.5113 109.902 65.2519C110.088 64.9602 110.388 64.555 110.81 64.0363C111.231 63.5257 111.531 63.1529 111.717 62.9341C112.009 62.5694 112.382 62.5289 112.82 62.8206C113.33 63.1124 113.979 63.5986 114.748 64.2794C115.518 64.9602 116.086 65.5032 116.458 65.9084C116.718 66.1677 116.807 66.4595 116.734 66.7917C116.661 67.124 116.475 67.2861 116.183 67.2861H106.207V72.3026H109.181C109.4 72.3026 109.618 72.1892 109.845 71.9704C109.991 71.784 110.17 71.5732 110.372 71.3382C110.575 71.1032 110.769 70.852 110.948 70.5926C111.207 70.2279 111.572 70.155 112.05 70.3738C112.56 70.6656 113.217 71.0384 114.003 71.476C114.789 71.9136 115.389 72.2864 115.794 72.5782C116.126 72.797 116.28 73.0644 116.264 73.3805C116.248 73.6966 116.053 73.9397 115.689 74.1261C115.356 74.272 115.081 74.4178 114.862 74.5637C114.57 74.7501 114.424 75.1553 114.424 75.7794C114.424 76.4763 114.44 77.3678 114.481 78.4538C114.513 79.5397 114.554 80.6095 114.594 81.6792C114.627 82.749 114.667 83.6729 114.708 84.459C114.74 85.2532 114.765 85.7152 114.765 85.861C114.765 86.3392 114.424 86.7444 113.744 87.0767C113.063 87.409 112.26 87.571 111.345 87.571C110.502 87.571 110.08 87.2226 110.08 86.5256V85.5369H106.223V88.4058C108.387 88.811 110.364 89.5161 112.147 90.5291C113.93 91.5421 115.097 92.8388 115.648 94.411C115.94 95.3268 115.948 96.194 115.672 97.0044C115.397 97.8148 114.927 98.3254 114.27 98.5442C113.752 98.6901 113.29 98.6739 112.868 98.4875C112.447 98.3011 112.09 97.8635 111.79 97.1665C111.126 95.5862 110.332 94.1922 109.392 92.9766C108.451 91.7609 107.398 90.7398 106.223 89.8889V91.8744C106.223 92.9442 106.239 94.2409 106.279 95.7888C106.312 97.3286 106.344 98.8846 106.361 100.449C106.377 102.013 106.409 103.358 106.442 104.501C106.474 105.635 106.498 106.316 106.498 106.543C106.498 106.948 106.117 107.305 105.372 107.621C104.618 107.929 103.8 108.091 102.916 108.091L102.892 108.099ZM98.2644 83.8998H102.122V73.9802H98.2644V83.8998ZM106.198 83.8998H110.056V73.9802H106.198V83.8998ZM109.505 108.042C109.027 107.783 108.913 107.435 109.173 106.997C110.858 106.3 112.544 105.433 114.214 104.404C115.883 103.374 117.39 102.28 118.736 101.121C120.073 99.9625 121.094 98.8684 121.791 97.8391L121.905 97.6771C121.645 97.7905 121.329 97.8797 120.94 97.9526C120.551 98.0255 120.138 98.0661 119.7 98.0661C118.857 98.0661 118.436 97.7014 118.436 96.9639C118.436 96.7451 118.46 95.7482 118.517 93.9896C118.574 92.2229 118.63 89.8808 118.679 86.9632C118.736 84.0457 118.76 80.804 118.76 77.2381C118.76 75.2526 118.711 73.4372 118.622 71.784C118.533 70.1307 118.395 69.0123 118.209 68.4207C118.136 68.1613 118.152 67.9831 118.266 67.8696C118.412 67.7237 118.614 67.6832 118.874 67.7561C119.384 67.9425 120.138 68.2505 121.135 68.6962C122.131 69.142 122.95 69.5067 123.615 69.7984H124.879L125.43 63.3474H119.206C117.698 63.3879 116.467 63.4771 115.51 63.623L114.959 61.1998C116.207 61.4591 117.625 61.6212 119.206 61.6942H134.142C134.62 61.6942 134.952 61.5483 135.131 61.2565C135.277 61.1106 135.487 60.8675 135.763 60.5433C136.038 60.2111 136.322 59.8707 136.614 59.5222C136.905 59.1737 137.108 58.9468 137.222 58.8333C137.554 58.5011 137.919 58.4687 138.324 58.7199C138.615 58.8658 139.021 59.1494 139.539 59.5708C140.05 59.9923 140.552 60.4218 141.031 60.8675C141.509 61.3051 141.857 61.6779 142.076 61.9697C142.368 62.302 142.473 62.6099 142.376 62.9098C142.287 63.2015 142.076 63.3474 141.744 63.3474H131.273L126.702 69.7984H132.878C133.242 69.7984 133.485 69.7093 133.591 69.5229C133.777 69.2635 133.98 68.9961 134.199 68.7205C134.417 68.445 134.62 68.1776 134.806 67.9182C135.066 67.5535 135.431 67.4968 135.909 67.7561C136.419 68.0155 137.141 68.4045 138.056 68.9394C138.972 69.4742 139.669 69.92 140.147 70.2928C140.479 70.5116 140.633 70.7871 140.617 71.1194C140.601 71.4517 140.407 71.6867 140.042 71.8326C139.823 71.946 139.629 72.0433 139.466 72.1324C139.304 72.2216 139.126 72.3269 138.94 72.4323C138.648 72.6916 138.502 73.1293 138.502 73.7533C138.502 76.1035 138.526 78.5186 138.583 80.9985C138.64 83.4784 138.697 85.7962 138.745 87.9438C138.802 90.0915 138.859 91.8663 138.907 93.2602C138.964 94.6542 138.988 95.4646 138.988 95.6834C138.988 96.0886 138.583 96.4857 137.773 96.8666C136.962 97.2556 136.079 97.442 135.131 97.442C134.288 97.442 133.866 97.0773 133.866 96.3399V95.6753H123.177V96.2264L123.234 96.2831C123.671 96.4695 124.222 96.7451 124.887 97.1098C125.551 97.4744 126.208 97.8635 126.872 98.2687C127.537 98.6739 128.064 99.0062 128.469 99.2574C128.761 99.4438 128.834 99.7193 128.688 100.084C128.542 100.416 128.283 100.546 127.918 100.473C127.44 100.36 127.067 100.335 126.791 100.392C126.516 100.449 126.159 100.619 125.714 100.919C124.206 101.989 122.529 102.977 120.673 103.893C118.817 104.809 116.928 105.627 115 106.349C113.071 107.07 111.239 107.621 109.513 108.026L109.505 108.042ZM123.169 77.7892H133.858V71.5084H123.169V77.7892ZM123.169 85.78H133.858V79.4992H123.169V85.78ZM123.169 94.0463H133.858V87.4333H123.169V94.0463ZM140.204 107.653C139.653 107.872 139.126 107.872 138.632 107.653C138.137 107.435 137.683 106.916 137.278 106.114C136.468 104.46 135.422 102.88 134.134 101.373C132.845 99.8652 131.492 98.6009 130.057 97.5717C129.912 96.9882 130.114 96.6559 130.665 96.583C132.943 97.1746 135.09 97.9769 137.116 99.0061C139.134 100.035 140.536 101.251 141.306 102.645C141.93 103.674 142.076 104.695 141.744 105.7C141.411 106.713 140.901 107.362 140.204 107.653Z" fill="#524847"/>
<path d="M161.364 108.043V105.619H174.923V77.2383H177.678V108.043H161.364Z" fill="#524847"/>
<path d="M215.533 104.638C212.964 104.638 210.695 104.403 208.717 103.933C206.74 103.463 205.208 102.653 204.114 101.51C203.02 100.367 202.469 98.7951 202.469 96.7853C202.469 95.2211 202.955 93.7786 203.928 92.4576C204.9 91.1447 206.189 89.9453 207.801 88.8593C209.414 87.7814 211.181 86.8332 213.093 86.0147C212.307 85.4798 211.708 84.7018 211.286 83.6645C210.865 82.6271 210.654 81.217 210.654 79.4341C210.654 78.7128 210.678 77.8294 210.727 76.7759C210.776 75.7304 210.824 74.6606 210.865 73.5828C210.913 72.5049 210.954 71.6053 210.986 70.8841C210.986 70.2924 210.954 69.8224 210.889 69.4739C210.824 69.1335 210.638 68.8499 210.322 68.6311C210.2 68.5095 210.014 68.4285 209.779 68.3961C209.544 68.3636 209.301 68.3474 209.049 68.3474C208.733 68.0071 208.733 67.6748 209.049 67.3587C209.706 67.2047 210.46 67.148 211.302 67.1966C212.145 67.2452 212.915 67.3911 213.604 67.6424C214.698 68.0476 215.411 68.6149 215.744 69.3361C216.076 70.0574 216.019 70.7787 215.581 71.5C215.047 72.3752 214.658 73.5342 214.406 74.9767C214.155 76.4193 214.034 77.9348 214.034 79.5394C214.034 80.982 214.147 82.1814 214.366 83.1377C214.585 84.094 214.941 84.7423 215.444 85.0908C216.538 84.6532 217.599 84.2642 218.621 83.9157C219.642 83.5753 220.493 83.2431 221.181 82.927C221.716 82.7082 222.227 82.5785 222.713 82.5542C223.199 82.5218 223.742 82.7082 224.334 83.1215C225.177 83.5267 225.704 83.9968 225.906 84.5316C226.109 85.0665 226.028 85.5447 225.647 85.9661C225.274 86.3875 224.626 86.663 223.718 86.7927C221.708 87.0115 219.642 87.4005 217.51 87.9435C215.379 88.4946 213.409 89.1835 211.61 90.0101C209.811 90.8448 208.352 91.8092 207.242 92.9276C206.132 94.046 205.573 95.286 205.573 96.6637C205.573 98.3251 206.407 99.4273 208.085 99.9783C209.763 100.529 212.17 100.805 215.298 100.805C216.424 100.805 217.664 100.732 219.01 100.594C220.355 100.456 221.635 100.278 222.843 100.076C224.05 99.873 224.999 99.6785 225.687 99.4921C225.971 99.3948 226.239 99.3543 226.49 99.3543C226.741 99.3543 227.025 99.4354 227.333 99.5893C228.864 100.375 229.561 101.21 229.424 102.102C229.286 102.993 228.524 103.601 227.146 103.909C226.644 104.006 225.89 104.095 224.893 104.193C223.888 104.29 222.802 104.371 221.627 104.452C220.452 104.533 219.326 104.582 218.24 104.614C217.162 104.646 216.254 104.663 215.541 104.663L215.533 104.638Z" fill="#524847"/>
<path d="M251.329 89.0299V58.2256H267.643V60.6488H254.085V89.0299H251.329Z" fill="#524847"/>
<path d="M281.915 108.042C281.729 107.896 281.632 107.71 281.615 107.491C281.599 107.272 281.664 107.086 281.81 106.94C287.507 106.129 292.289 104.962 296.163 103.439C300.036 101.915 303.246 99.7351 305.782 96.9067C304.315 96.3962 302.808 95.9423 301.26 95.5533C299.72 95.1643 298.189 94.8482 296.689 94.5889C296.471 95.0671 296.284 95.4885 296.138 95.8532C295.992 96.2179 295.879 96.4934 295.806 96.6798C295.693 96.9716 295.352 97.2066 294.785 97.3687C294.218 97.5308 293.569 97.6199 292.856 97.6199C292.143 97.6199 291.47 97.5064 290.846 97.2876C290.441 97.1012 290.149 96.85 289.963 96.5177C289.776 96.1854 289.817 95.837 290.076 95.4723C290.481 94.8482 291.041 93.8271 291.754 92.417C292.467 90.9987 293.269 89.3698 294.153 87.5139C295.036 85.658 295.879 83.794 296.689 81.922H286.656C284.744 81.9625 283.261 82.0516 282.191 82.1975L281.583 79.8311C282.977 80.0499 284.655 80.1957 286.6 80.2687H297.403C298.14 78.6559 298.732 77.2053 299.194 75.9167C299.656 74.6281 300.028 73.5502 300.32 72.6669C300.652 71.5647 300.758 70.7381 300.652 70.187C300.652 69.8547 300.685 69.6359 300.766 69.5224C300.879 69.336 301.074 69.3036 301.374 69.409C301.519 69.4495 301.9 69.563 302.5 69.7656C303.108 69.9682 303.772 70.1951 304.51 70.4544C305.247 70.7138 305.912 70.9488 306.52 71.1676C307.128 71.3864 307.5 71.5323 307.646 71.6052C308.011 71.824 308.141 72.1158 308.035 72.4886C307.922 72.9667 307.671 73.1288 307.265 72.983C306.901 72.91 306.601 72.9262 306.382 73.0397C306.163 73.1531 305.92 73.4611 305.669 73.9798C305.45 74.4174 305.093 75.2035 304.591 76.3219C304.097 77.4403 303.537 78.7532 302.913 80.2606H321.65C322.088 80.2606 322.42 80.1309 322.639 79.8716C322.826 79.6852 323.085 79.3853 323.441 78.9639C323.79 78.5425 324.138 78.1292 324.487 77.7239C324.835 77.3187 325.062 77.0432 325.176 76.8973C325.541 76.4921 325.962 76.4192 326.44 76.6785C326.878 76.9378 327.421 77.3106 328.069 77.805C328.709 78.2993 329.325 78.7856 329.917 79.2638C330.5 79.7419 330.93 80.1309 331.181 80.4227C331.473 80.7549 331.57 81.0872 331.457 81.4114C331.343 81.7437 331.124 81.9057 330.792 81.9057H318.83C318.166 84.7017 317.363 87.2221 316.407 89.4832C315.451 91.7443 314.332 93.7542 313.044 95.5209C315.467 96.1449 317.744 96.9148 319.876 97.8387C322.007 98.7545 323.806 99.8243 325.273 101.032C326.083 101.696 326.635 102.434 326.926 103.26C327.218 104.087 327.315 104.881 327.202 105.627C327.088 106.381 326.797 106.956 326.319 107.361C325.84 107.766 325.305 107.969 324.722 107.969C324.138 107.969 323.474 107.637 322.736 106.98C320.864 105.295 318.879 103.755 316.788 102.377C314.697 100.999 312.525 99.7999 310.288 98.7707C306.941 102.118 302.881 104.436 298.108 105.74C293.334 107.045 287.929 107.807 281.907 108.026L281.915 108.042ZM284.841 78.0076C283.998 78.0481 283.317 77.8698 282.799 77.4808C282.288 77.0918 281.956 76.5894 281.81 75.9653C281.664 75.3413 281.68 74.7254 281.867 74.1175C282.053 73.5097 282.418 73.0397 282.969 72.7155C285.87 70.8029 287.54 67.699 287.985 63.4037C288.131 63.2173 288.318 63.1201 288.536 63.1039C288.755 63.0877 288.942 63.1525 289.088 63.2984C289.274 63.7765 289.42 64.2709 289.525 64.7896C289.639 65.3082 289.728 65.8188 289.801 66.3294H303.854V61.8639C303.854 60.397 303.724 59.4732 303.465 59.1085C303.319 58.8896 303.302 58.6708 303.408 58.4439C303.521 58.298 303.716 58.2251 304.016 58.2251C304.494 58.2656 305.191 58.3467 306.106 58.4763C307.022 58.606 307.954 58.7438 308.886 58.8896C309.826 59.0355 310.515 59.1652 310.953 59.2787C311.318 59.3516 311.504 59.6271 311.504 60.1053C311.463 60.5834 311.212 60.8185 310.734 60.8185C310.329 60.859 309.988 60.9562 309.713 61.1183C309.437 61.2804 309.3 61.5884 309.3 62.026V66.3213H321.48C321.813 66.3213 322.088 66.2078 322.307 65.989C322.493 65.7702 322.769 65.4541 323.134 65.0489C323.498 64.6437 323.774 64.3357 323.96 64.1088C324.292 63.7036 324.673 63.6469 325.119 63.9467C325.233 64.0196 325.549 64.2466 326.083 64.6356C326.618 65.0246 327.226 65.4541 327.899 65.9322C328.571 66.4104 329.212 66.848 329.803 67.2532C330.387 67.6585 330.776 67.934 330.962 68.0799C331.149 68.2258 331.254 68.4446 331.295 68.7444C331.327 69.0362 331.278 69.2793 331.132 69.4576C330.987 69.7169 330.808 69.8871 330.606 69.9844C330.403 70.0735 330.119 70.0816 329.755 70.0087C329.277 69.9358 328.815 69.9276 328.377 69.9844C327.939 70.0411 327.421 70.2113 326.837 70.5112C326.246 70.7705 325.516 71.1757 324.633 71.7268C323.749 72.2779 322.866 72.8533 321.991 73.4611C321.116 74.0689 320.338 74.6119 319.673 75.0901C319.122 75.0901 318.846 74.8307 318.846 74.3202C318.96 74.1013 319.138 73.7042 319.397 73.1369C319.657 72.5696 319.94 71.9456 320.248 71.2649C320.556 70.5841 320.856 69.9439 321.132 69.336C321.407 68.7282 321.602 68.2825 321.707 67.9826H289.963C290.076 69.6764 289.955 71.2649 289.606 72.7479C289.258 74.2391 288.69 75.4548 287.896 76.4111C287.102 77.3674 286.089 77.9022 284.841 78.0076ZM307.768 94.3701C308.87 92.7573 309.843 90.9177 310.685 88.8592C311.528 86.8007 312.282 84.491 312.946 81.9138H302.2C301.357 83.8265 300.49 85.812 299.607 87.8624C298.724 89.9208 297.954 91.7038 297.289 93.2112C298.902 93.2841 300.604 93.4219 302.387 93.6245C304.17 93.8271 305.961 94.0783 307.76 94.3701H307.768Z" fill="#524847"/>
<path d="M346.23 96.0238C345.055 96.0238 344.212 95.6672 343.693 94.9459C343.175 94.2247 343.004 93.4304 343.166 92.5471C343.329 91.6637 343.855 90.9667 344.739 90.4562C346.903 89.1676 348.54 87.3441 349.642 84.9696C350.744 82.6032 351.311 80.0341 351.352 77.2787C351.684 76.8734 352.049 76.841 352.454 77.1652C353.119 79.6289 353.418 81.9872 353.362 84.2483C353.305 86.5094 352.981 88.5193 352.397 90.286C351.806 92.0527 350.979 93.4467 349.917 94.4759C348.848 95.5051 347.624 96.0157 346.222 96.0157L346.23 96.0238ZM362.211 106.114C360.923 105.927 359.991 105.563 359.399 105.011C358.808 104.46 358.516 103.617 358.516 102.475V76.9059C358.516 75.1797 358.451 73.8425 358.321 72.8861C358.192 71.9298 358.022 71.2734 357.795 70.9006C357.649 70.6818 357.633 70.4792 357.738 70.2928C357.884 70.1469 358.086 70.074 358.346 70.074C358.824 70.1145 359.521 70.2036 360.437 70.3495C361.352 70.4954 362.284 70.6656 363.216 70.8439C364.157 71.0303 364.845 71.1761 365.283 71.2815C365.721 71.3869 365.907 71.6705 365.834 72.1081C365.834 72.5134 365.599 72.7484 365.121 72.8213C364.643 72.8537 364.254 72.9672 363.962 73.1536C363.67 73.34 363.524 73.7047 363.524 74.2558V99.6059C363.524 100.197 363.67 100.595 363.962 100.822C364.254 101.04 364.716 101.186 365.34 101.259C366.256 101.373 367.471 101.421 368.979 101.421C370.486 101.421 372.01 101.356 373.549 101.227C375.089 101.097 376.337 100.886 377.294 100.595C377.877 100.408 378.315 100.181 378.59 99.9057C378.866 99.6302 379.133 99.2169 379.393 98.6658C379.579 98.2606 379.79 97.6771 380.025 96.8991C380.26 96.1292 380.511 95.3025 380.77 94.4192C381.03 93.5358 381.248 92.7335 381.435 91.996C381.621 91.2585 381.743 90.7317 381.824 90.3995C382.302 90.1077 382.667 90.1806 382.926 90.6183C382.926 90.91 382.902 91.4368 382.845 92.1905C382.788 92.9442 382.731 93.7546 382.683 94.6137C382.626 95.4808 382.586 96.2669 382.545 96.9801C382.505 97.6933 382.488 98.2038 382.488 98.4956C382.488 99.1196 382.748 99.5248 383.258 99.7112C383.842 99.9301 384.352 100.254 384.774 100.676C385.195 101.097 385.406 101.624 385.406 102.248C385.406 102.872 385.155 103.439 384.66 103.958C384.166 104.468 383.291 104.898 382.043 105.222C380.795 105.514 379.271 105.757 377.472 105.935C375.673 106.122 373.801 106.243 371.847 106.324C369.902 106.397 368.071 106.413 366.361 106.381C364.651 106.341 363.265 106.251 362.203 106.105L362.211 106.114ZM372.739 70.7871C371.491 71.2248 370.478 70.7142 369.708 69.2473C368.679 67.3023 367.447 65.4708 366.012 63.7608C364.578 62.0508 362.836 60.6811 360.777 59.6519C360.591 59.1413 360.745 58.7847 361.215 58.6064C363.127 58.8658 364.991 59.3115 366.807 59.9599C368.622 60.6082 370.21 61.4105 371.572 62.383C372.933 63.3555 373.849 64.4901 374.327 65.7706C374.805 66.9133 374.862 67.9588 374.489 68.9151C374.125 69.8714 373.533 70.4954 372.723 70.7871H372.739ZM390.698 92.4985C390.106 92.6443 389.531 92.5795 388.964 92.304C388.396 92.0284 387.983 91.3963 387.724 90.3995C387.1 88.0492 386.143 85.6422 384.855 83.1786C383.566 80.7149 382.059 78.6807 380.333 77.0598C380.292 76.841 380.341 76.6384 380.47 76.452C380.6 76.2656 380.77 76.1765 380.997 76.1765C382.91 76.914 384.717 77.8703 386.427 79.0454C388.137 80.2205 389.588 81.5415 390.779 83.0165C391.97 84.4833 392.732 86.0637 393.064 87.7575C393.283 88.9326 393.154 89.9618 392.675 90.8452C392.197 91.7285 391.533 92.2796 390.69 92.4985H390.698Z" fill="#524847"/>
<path d="M407.182 108.042V105.619H420.74V77.2378H423.495V108.042H407.182Z" fill="#524847"/>
<path d="M452.427 107.548C450.92 107.548 449.534 107.167 448.27 106.422C447.006 105.668 446.001 104.663 445.263 103.415C444.526 102.167 444.161 100.773 444.161 99.2249C444.161 97.677 444.526 96.2831 445.263 95.035C446.001 93.787 446.998 92.782 448.27 92.0284C449.534 91.2747 450.928 90.9019 452.427 90.9019C453.927 90.9019 455.377 91.2747 456.642 92.0284C457.906 92.782 458.919 93.787 459.673 95.035C460.426 96.2831 460.799 97.677 460.799 99.2249C460.799 100.773 460.418 102.167 459.673 103.415C458.919 104.663 457.906 105.668 456.642 106.422C455.377 107.175 453.967 107.548 452.427 107.548ZM452.427 104.955C454.04 104.955 455.386 104.395 456.447 103.277C457.509 102.159 458.044 100.805 458.044 99.2249C458.044 97.6446 457.509 96.2993 456.447 95.1728C455.377 94.0544 454.04 93.4952 452.427 93.4952C450.815 93.4952 449.567 94.0544 448.489 95.1728C447.403 96.2912 446.86 97.6446 446.86 99.2249C446.86 100.805 447.403 102.159 448.489 103.277C449.575 104.395 450.888 104.955 452.427 104.955Z" fill="#524847"/>
</g>
<defs>
<clipPath id="clip0_229_4467">
<rect width="460.8" height="108.123" fill="white"/>
</clipPath>
</defs>
</svg>
